<svg xmlns="http://www.w3.org/2000/svg" viewBox="0 0 160 160" role="img" aria-label="손선풍기">
  <defs>
    <linearGradient id="fanBody" x1="36" y1="24" x2="128" y2="140" gradientUnits="userSpaceOnUse">
      <stop offset="0" stop-color="#fff7fb"/>
      <stop offset="0.52" stop-color="#ffd3e4"/>
      <stop offset="1" stop-color="#ff8fbd"/>
    </linearGradient>
    <linearGradient id="fanBlue" x1="36" y1="22" x2="128" y2="98" gradientUnits="userSpaceOnUse">
      <stop offset="0" stop-color="#f5fbff"/>
      <stop offset="1" stop-color="#8fd8ff"/>
    </linearGradient>
    <filter id="softShadow" x="-20%" y="-20%" width="140%" height="150%">
      <feDropShadow dx="0" dy="8" stdDeviation="5" flood-color="#6d3354" flood-opacity=".22"/>
    </filter>
  </defs>
  <g filter="url(#softShadow)">
    <circle cx="80" cy="62" r="46" fill="url(#fanBody)" stroke="#ffffff" stroke-width="8"/>
    <circle cx="80" cy="62" r="34" fill="#fffafe" stroke="#ff9ac3" stroke-width="5"/>
    <path d="M80 31c8 8 10 20 3 29 13-4 25 1 32 11-12 3-25 2-34-7 3 13-3 24-13 31-4-12-3-25 6-34-13 3-24-3-31-13 12-4 25-3 34 6-3-10-1-20 3-23z" fill="url(#fanBlue)" stroke="#55aee7" stroke-width="3" stroke-linejoin="round"/>
    <circle cx="80" cy="62" r="8" fill="#ff73aa" stroke="#ffffff" stroke-width="4"/>
    <rect x="64" y="100" width="32" height="46" rx="15" fill="url(#fanBody)" stroke="#ffffff" stroke-width="7"/>
    <circle cx="80" cy="121" r="5" fill="#ffffff" opacity=".9"/>
  </g>
</svg>
