<svg xmlns="http://www.w3.org/2000/svg" viewBox="0 0 1920 1080" role="img" aria-label="밝은 출근길 거리 배경">
  <defs>
    <linearGradient id="sky" x1="0" y1="0" x2="0" y2="1">
      <stop offset="0" stop-color="#39b8f2"/>
      <stop offset="0.52" stop-color="#9ee7ff"/>
      <stop offset="1" stop-color="#fff3c4"/>
    </linearGradient>
    <linearGradient id="road" x1="0" y1="0" x2="0" y2="1">
      <stop offset="0" stop-color="#7c8794"/>
      <stop offset="1" stop-color="#4f5965"/>
    </linearGradient>
    <filter id="softShadow" x="-20%" y="-20%" width="140%" height="140%">
      <feDropShadow dx="0" dy="10" stdDeviation="8" flood-color="#1b2d4a" flood-opacity="0.2"/>
    </filter>
  </defs>

  <rect width="1920" height="1080" fill="url(#sky)"/>

  <g opacity="0.95">
    <circle cx="150" cy="145" r="58" fill="#ffd852"/>
    <circle cx="132" cy="135" r="8" fill="#955f2a"/>
    <circle cx="168" cy="135" r="8" fill="#955f2a"/>
    <path d="M128 165c16 18 39 18 55 0" fill="none" stroke="#955f2a" stroke-width="8" stroke-linecap="round"/>
    <g stroke="#ffd852" stroke-width="12" stroke-linecap="round">
      <path d="M150 42v-30"/><path d="M150 278v-30"/><path d="M47 145H17"/><path d="M283 145h-30"/>
      <path d="M78 73 56 51"/><path d="M222 217l22 22"/><path d="M222 73l22-22"/><path d="M78 217l-22 22"/>
    </g>
  </g>

  <g fill="#fff" opacity="0.95">
    <ellipse cx="390" cy="128" rx="92" ry="42"/>
    <ellipse cx="475" cy="134" rx="65" ry="34"/>
    <ellipse cx="315" cy="142" rx="55" ry="31"/>
    <ellipse cx="1360" cy="110" rx="86" ry="42"/>
    <ellipse cx="1450" cy="124" rx="74" ry="34"/>
    <ellipse cx="1278" cy="130" rx="54" ry="28"/>
    <ellipse cx="1675" cy="245" rx="82" ry="35"/>
    <ellipse cx="1752" cy="252" rx="55" ry="26"/>
  </g>

  <g opacity="0.64">
    <rect x="250" y="278" width="150" height="310" rx="18" fill="#6fc4e9"/>
    <rect x="430" y="325" width="170" height="270" rx="18" fill="#85d2ef"/>
    <rect x="620" y="282" width="145" height="310" rx="18" fill="#62b9df"/>
    <rect x="1290" y="285" width="155" height="305" rx="18" fill="#6fc4e9"/>
    <rect x="1480" y="330" width="190" height="275" rx="18" fill="#83d0ef"/>
    <rect x="1700" y="275" width="150" height="330" rx="18" fill="#62b9df"/>
  </g>
  <g fill="#e7f8ff" opacity="0.9">
    <rect x="282" y="318" width="28" height="38" rx="5"/><rect x="332" y="318" width="28" height="38" rx="5"/>
    <rect x="462" y="368" width="30" height="38" rx="5"/><rect x="520" y="368" width="30" height="38" rx="5"/>
    <rect x="653" y="326" width="28" height="38" rx="5"/><rect x="704" y="326" width="28" height="38" rx="5"/>
    <rect x="1326" y="330" width="30" height="38" rx="5"/><rect x="1382" y="330" width="30" height="38" rx="5"/>
    <rect x="1518" y="374" width="32" height="38" rx="5"/><rect x="1578" y="374" width="32" height="38" rx="5"/>
    <rect x="1736" y="322" width="28" height="38" rx="5"/><rect x="1788" y="322" width="28" height="38" rx="5"/>
  </g>

  <path d="M0 690h1920v390H0z" fill="#d9ad72"/>
  <path d="M0 752h1920v328H0z" fill="url(#road)"/>
  <path d="M905 752h110l190 328H720z" fill="#434b55" opacity="0.45"/>
  <g fill="#fff3c1" opacity="0.95">
    <rect x="430" y="835" width="160" height="22" rx="11"/>
    <rect x="660" y="835" width="160" height="22" rx="11"/>
    <rect x="890" y="835" width="160" height="22" rx="11"/>
    <rect x="1120" y="835" width="160" height="22" rx="11"/>
  </g>

  <g filter="url(#softShadow)">
    <rect x="111" y="482" width="235" height="148" rx="23" fill="#f7c22d" stroke="#6b4524" stroke-width="8"/>
    <rect x="139" y="512" width="52" height="47" rx="8" fill="#5fc7f2" stroke="#24465a" stroke-width="5"/>
    <rect x="204" y="512" width="52" height="47" rx="8" fill="#5fc7f2" stroke="#24465a" stroke-width="5"/>
    <rect x="269" y="512" width="52" height="47" rx="8" fill="#5fc7f2" stroke="#24465a" stroke-width="5"/>
    <rect x="129" y="572" width="188" height="22" rx="11" fill="#ffec84"/>
    <circle cx="166" cy="635" r="25" fill="#26313c"/><circle cx="166" cy="635" r="11" fill="#a9b2bd"/>
    <circle cx="294" cy="635" r="25" fill="#26313c"/><circle cx="294" cy="635" r="11" fill="#a9b2bd"/>
    <rect x="96" y="430" width="95" height="44" rx="22" fill="#1e73d8" stroke="#fff3c1" stroke-width="6"/>
    <text x="143" y="461" text-anchor="middle" font-size="28" font-family="Arial, sans-serif" font-weight="700" fill="#fff">BUS</text>
    <rect x="132" y="474" width="14" height="115" rx="7" fill="#6b4524"/>
  </g>

  <g filter="url(#softShadow)" transform="translate(-190 -60) scale(1.08)">
    <rect x="1420" y="405" width="370" height="245" rx="25" fill="#d88f50"/>
    <rect x="1450" y="465" width="310" height="174" rx="18" fill="#8ecad6"/>
    <path d="M1408 406h394l-34 67h-326z" fill="#fff4c7"/>
    <path d="M1408 406h66l-34 67h-66zM1540 406h66l-34 67h-66zM1672 406h66l-34 67h-66z" fill="#76b850"/>
    <rect x="1470" y="343" width="286" height="74" rx="18" fill="#fff4c7" stroke="#b66d32" stroke-width="8"/>
    <text x="1613" y="392" text-anchor="middle" font-size="42" font-family="Arial, sans-serif" font-weight="800" fill="#9b5525">BON&amp;HIRI</text>
    <rect x="1610" y="548" width="135" height="92" rx="10" fill="#4c3928"/>
    <path d="M1438 650h352v36h-352z" fill="#ad6a34"/>
    <rect x="1326" y="600" width="130" height="72" rx="12" fill="#5d4730" stroke="#fff4c7" stroke-width="5"/>
    <text x="1391" y="630" text-anchor="middle" font-size="23" font-family="Arial, sans-serif" font-weight="800" fill="#fff4c7">GO!</text>
    <path d="M1418 648h-54l18 13-18 13h54z" fill="#fff4c7"/>
  </g>

  <g fill="#45a75b">
    <circle cx="58" cy="592" r="52"/><circle cx="113" cy="560" r="54"/><circle cx="163" cy="606" r="66"/>
    <circle cx="1844" cy="674" r="61"/><circle cx="1786" cy="644" r="48"/><circle cx="1728" cy="687" r="43"/>
  </g>
  <g fill="#fff9d6">
    <circle cx="71" cy="615" r="8"/><circle cx="93" cy="592" r="8"/><circle cx="140" cy="623" r="8"/>
    <circle cx="1776" cy="674" r="8"/><circle cx="1815" cy="652" r="8"/><circle cx="1850" cy="690" r="8"/>
  </g>
</svg>
